<svg width="50" height="50" viewBox="0 0 50 50" fill="none" xmlns="http://www.w3.org/2000/svg">
<g clip-path="url(#clip0_27_2)">
<rect width="50" height="50" fill="white"/>
<path d="M5.48011 37H1.97159L12.1193 9.36364H15.5739L25.7216 37H22.2131L13.9545 13.7358H13.7386L5.48011 37ZM6.77557 26.2045H20.9176V29.1733H6.77557V26.2045ZM30.0263 37V9.36364H39.3643C41.5324 9.36364 43.3047 9.75497 44.6811 10.5376C46.0665 11.3113 47.0921 12.3594 47.7578 13.6818C48.4235 15.0043 48.7564 16.4796 48.7564 18.108C48.7564 19.7363 48.4235 21.2161 47.7578 22.5476C47.1011 23.879 46.0845 24.9406 44.7081 25.7322C43.3317 26.5149 41.5684 26.9062 39.4183 26.9062H32.7251V23.9375H39.3104C40.7947 23.9375 41.9867 23.6811 42.8864 23.1683C43.786 22.6555 44.4382 21.9628 44.843 21.0902C45.2569 20.2086 45.4638 19.2145 45.4638 18.108C45.4638 17.0014 45.2569 16.0118 44.843 15.1392C44.4382 14.2666 43.7815 13.5829 42.8729 13.0881C41.9643 12.5843 40.7588 12.3324 39.2564 12.3324H33.3729V37H30.0263Z" fill="black"/>
</g>
<defs>
<clipPath id="clip0_27_2">
<rect width="50" height="50" fill="white"/>
</clipPath>
</defs>
</svg>
