<svg width="24" height="24" viewBox="0 0 24 24" fill="none" xmlns="http://www.w3.org/2000/svg">
<path d="M12 7.88889C9.73333 7.88889 7.88889 9.73333 7.88889 12C7.88889 14.2667 9.73333 16.1333 12 16.1333C14.2667 16.1333 16.1333 14.2667 16.1333 12C16.1333 9.73333 14.2667 7.88889 12 7.88889ZM4 12C4 14.1778 4.02222 14.4444 4.04444 15.3111C4.06667 16.1333 4.22222 16.7556 4.42222 17.2444C4.62222 17.7778 4.91111 18.2222 5.33333 18.6667C5.8 19.0889 6.22222 19.3778 6.75556 19.5778C7.26667 19.7778 7.86667 19.9333 8.71111 19.9556C9.55556 19.9778 9.82222 20 12 20C14.1778 20 14.4444 19.9778 15.3111 19.9556C16.1333 19.9333 16.7556 19.7778 17.2444 19.5778C17.7778 19.3778 18.2222 19.0889 18.6667 18.6667C19.0889 18.2222 19.3778 17.7778 19.5778 17.2444C19.7778 16.7556 19.9333 16.1333 19.9556 15.3111C19.9778 14.4444 20 14.1778 20 12C20 9.82222 19.9778 9.55556 19.9556 8.71111C19.9333 7.86667 19.7778 7.26667 19.5778 6.75556C19.3778 6.22222 19.1111 5.8 18.6667 5.33333C18.2222 4.91111 17.7778 4.62222 17.2667 4.42222C16.7556 4.22222 16.1556 4.08889 15.3111 4.04445C14.4444 4.02222 14.1778 4 12 4C9.82222 4 9.55556 4.02222 8.71111 4.04445C7.86667 4.06667 7.26667 4.22222 6.75556 4.42222C6.22222 4.62222 5.8 4.91111 5.33333 5.33333C4.91111 5.8 4.62222 6.22222 4.42222 6.75556C4.22222 7.26667 4.06667 7.86667 4.04444 8.68889C4.02222 9.55556 4 9.82222 4 12ZM5.46667 12C5.46667 9.86667 5.46667 9.6 5.48889 8.75555C5.53333 7.97778 5.64444 7.55556 5.75556 7.26667C5.91111 6.88889 6.08889 6.62222 6.35556 6.35556C6.64444 6.08889 6.91111 5.91111 7.28889 5.75556C7.57778 5.64444 8 5.53333 8.75556 5.46667C9.62222 5.46667 9.86667 5.44445 12 5.44445C14.1333 5.44445 14.4 5.46667 15.2444 5.46667C16.0222 5.53333 16.4444 5.64444 16.7333 5.75556C17.1111 5.91111 17.3778 6.08889 17.6444 6.35556C17.9111 6.62222 18.0889 6.88889 18.2444 7.26667C18.3556 7.55556 18.4889 8 18.5333 8.75555C18.5333 9.62222 18.5556 9.86667 18.5556 12C18.5556 14.1333 18.5333 14.3778 18.5333 15.2444C18.4889 16 18.3556 16.4222 18.2444 16.7111C18.0889 17.0889 17.9111 17.3556 17.6444 17.6444C17.3778 17.9111 17.1111 18.0889 16.7333 18.2222C16.4444 18.3333 16.0222 18.4667 15.2444 18.5111C14.3778 18.5333 14.1333 18.5333 12 18.5333C9.86667 18.5333 9.62222 18.5333 8.75556 18.5111C8 18.4667 7.57778 18.3333 7.28889 18.2222C6.91111 18.0889 6.64444 17.9111 6.35556 17.6444C6.08889 17.3556 5.91111 17.0889 5.75556 16.7111C5.64444 16.4222 5.53333 16 5.48889 15.2444C5.46667 14.3778 5.46667 14.1333 5.46667 12ZM9.33333 12C9.33333 10.5333 10.5333 9.33333 12 9.33333C13.4667 9.33333 14.6667 10.5333 14.6667 12C14.6667 13.4667 13.4667 14.6667 12 14.6667C10.5333 14.6667 9.33333 13.4667 9.33333 12ZM15.3333 7.73333C15.3333 8.24444 15.7556 8.68889 16.2667 8.68889C16.8 8.68889 17.2444 8.24444 17.2444 7.73333C17.2444 7.2 16.8 6.77778 16.2667 6.77778C15.7556 6.77778 15.3333 7.2 15.3333 7.73333Z" fill="#004632"/>
</svg>
